<svg width="765.11005859375px" height="135.21750488281248px" xmlns="http://www.w3.org/2000/svg" viewBox="-132.55502929687498 7.391247558593761 765.11005859375 135.21750488281248" style="background: rgba(0, 0, 0, 0);" preserveAspectRatio="xMidYMid"><defs><filter id="editing-hole" x="-100%" y="-100%" width="300%" height="300%"><feFlood flood-color="#000" result="black"></feFlood><feMorphology operator="dilate" radius="2" in="SourceGraphic" result="erode"></feMorphology><feGaussianBlur in="erode" stdDeviation="4" result="blur"></feGaussianBlur><feOffset in="blur" dx="2" dy="2" result="offset"></feOffset><feComposite operator="atop" in="offset" in2="black" result="merge"></feComposite><feComposite operator="in" in="merge" in2="SourceGraphic" result="inner-shadow"></feComposite></filter></defs><g filter="url(#editing-hole)"><g transform="translate(-23.344979286193848, 108.06499862670898)"><path d="M21.23-18.33L21.23-18.33L21.23-18.33Q16.18-30.13 8.54-40.75L8.54-40.75L8.54-40.75Q6.83-43.12 5.20-43.94L5.20-43.94L5.20-43.94Q3.34-44.83 0.96-45.35L0.96-45.35L0.96-46.46L0.96-46.46Q4.45-46.16 11.28-46.16L11.28-46.16L11.28-46.16Q18.55-46.16 21.82-46.46L21.82-46.46L21.82-44.98L21.82-44.98Q17.66-44.61 17.07-43.71L17.07-43.71L17.07-43.71Q16.70-42.97 16.55-41.93L16.55-41.93L16.40-41.04L16.40-41.04Q21.45-31.25 26.72-22.34L26.72-22.34L26.72-22.34Q37.48-41.56 37.55-42.60L37.55-42.60L37.55-42.60Q37.55-43.64 35.85-44.16L35.85-44.16L31.39-45.35L31.39-46.46L31.39-46.46Q34.88-46.16 39.19-46.16L39.19-46.16L39.19-46.16Q43.57-46.16 46.91-46.46L46.91-46.46L46.91-44.98L46.91-44.98Q43.86-44.83 41.93-43.71L41.93-43.71L41.93-43.71Q41.27-43.27 40.15-42.08L40.15-42.08L39.04-40.89L39.04-40.89Q30.28-25.75 28.28-21.45L28.28-21.45L28.28-21.45Q28.28-18.63 28.57-2.60L28.57-2.60L28.57-2.60Q28.57-0.74 34.66-0.74L34.66-0.74L34.66 0.67L14.47 0.67L14.47-0.52L14.47-0.52Q14.70-0.52 15.29-0.52L15.29-0.52L15.29-0.52Q20.78-0.52 20.86-2.23L20.86-2.23L20.86-2.23Q21.00-10.91 21.23-18.33ZM67.46-0.59L67.46-0.59L67.46-0.59Q71.47-0.59 73.70-4.30L73.70-4.30L73.70-4.30Q75.93-8.02 75.93-14.99L75.93-14.99L75.93-14.99Q75.93-20.78 73.55-25.12L73.55-25.12L73.55-25.12Q71.18-29.46 67.32-29.46L67.32-29.46L67.32-29.46Q64.72-29.46 62.86-28.05L62.86-28.05L62.86-28.05Q61.01-26.64 60.15-24.23L60.15-24.23L60.15-24.23Q59.30-21.82 58.89-19.45L58.89-19.45L58.89-19.45Q58.48-17.07 58.48-14.47L58.48-14.47L58.48-14.47Q58.48-8.31 60.86-4.45L60.86-4.45L60.86-4.45Q63.23-0.59 67.46-0.59ZM66.65-30.95L66.65-30.95L66.65-30.95Q73.25-30.95 77.86-26.35L77.86-26.35L77.86-26.35Q82.46-21.75 82.46-15.81L82.46-15.81L82.46-15.81Q82.46-8.61 78.60-3.67L78.60-3.67L78.60-3.67Q74.74 1.26 67.24 1.26L67.24 1.26L67.24 1.26Q51.66 1.26 51.66-15.73L51.66-15.73L51.66-15.73Q51.66-22.34 56.26-26.64L56.26-26.64L56.26-26.64Q60.86-30.95 66.65-30.95ZM88.47-28.13L88.47-29.32L88.47-29.32Q95-29.32 99.23-30.13L99.23-30.13L99.08-9.80L99.08-9.80Q99.23-1.26 103.09-1.26L103.09-1.26L103.09-1.26Q105.24-1.26 107.25-2.78L107.25-2.78L107.25-2.78Q109.25-4.30 110.51-6.09L110.51-6.09L110.51-6.09Q111.77-7.87 112.52-9.43L112.52-9.43L113.26-10.91L113.26-27.24L113.26-27.24Q111.85-28.13 108.88-28.13L108.88-28.13L108.88-29.32L108.88-29.32Q115.86-29.32 119.79-30.13L119.79-30.13L119.20-15.36L119.20-15.36Q119.20-13.73 119.20-11.65L119.20-11.65L119.27-2.08L119.27-2.08Q120.16-1.34 123.80-1.19L123.80-1.19L123.80-0.30L123.80-0.30Q118.16 0 113.63 1.11L113.63 1.11L113.11-6.98L112.22-5.79L112.22-5.79Q111.33-4.60 109.92-3.12L109.92-3.12L109.92-3.12Q108.51-1.63 106.36-0.41L106.36-0.41L106.36-0.41Q104.20 0.82 102.20 0.82L102.20 0.82L102.20 0.82Q97.08 0.82 95-1.86L95-1.86L95-1.86Q92.92-4.53 92.92-9.65L92.92-9.65L92.85-27.54L92.85-27.54Q91.66-28.13 88.47-28.13L88.47-28.13ZM150.29-30.88L150.29-30.88L150.29-30.88Q153.11-30.88 154.63-29.21L154.63-29.21L154.63-29.21Q156.16-27.54 156.16-24.42L156.16-24.42L156.16-24.42Q156.16-22.56 154.89-21.00L154.89-21.00L154.89-21.00Q153.63-19.45 152-19.45L152-19.45L152-19.45Q150.81-19.45 149.55-20.48L149.55-20.48L149.55-20.48Q148.29-21.52 148.21-22.93L148.21-22.93L148.21-22.93Q148.21-24.57 150.37-26.05L150.37-26.05L150.37-26.05Q150.14-26.72 149.59-27.39L149.59-27.39L149.59-27.39Q149.03-28.05 147.84-28.05L147.84-28.05L147.84-28.05Q145.77-28.05 143.87-25.79L143.87-25.79L143.87-25.79Q141.98-23.53 141.16-21.30L141.16-21.30L140.35-19L140.50-3.12L140.50-3.12Q140.57-1.63 145.62-1.19L145.62-1.19L145.62 0L145.62 0Q142.50-0.22 137.53-0.22L137.53-0.22L137.53-0.22Q132.85-0.22 129.81 0L129.81 0L129.81-1.19L129.81-1.19Q130.92-1.26 132.74-1.93L132.74-1.93L132.74-1.93Q134.56-2.60 134.56-3.12L134.56-3.12L134.56-27.68L134.56-27.68Q133.59-28.28 129.81-28.43L129.81-28.43L129.66-29.61L129.66-29.61Q133.89-29.61 139.75-31.10L139.75-31.10L140.57-22.19L140.57-22.19Q141.76-25.38 144.21-28.13L144.21-28.13L144.21-28.13Q146.66-30.88 150.29-30.88ZM196.83-30.58L196.38-28.65L188.52-28.65L188.52-28.65Q188.52-28.65 188.52-8.46L188.52-8.46L188.52-8.46Q188.52-5.27 189.52-3.34L189.52-3.34L189.52-3.34Q190.52-1.41 192.23-1.41L192.23-1.41L192.23-1.41Q194.16-1.41 195.46-2.97L195.46-2.97L195.46-2.97Q196.75-4.53 197.87-7.64L197.87-7.64L199.50-6.83L199.50-6.83Q198.83-5.05 198.31-4.08L198.31-4.08L198.31-4.08Q197.79-3.12 196.83-1.86L196.83-1.86L196.83-1.86Q195.86-0.59 194.45-0.04L194.45-0.04L194.45-0.04Q193.04 0.52 191.04 0.52L191.04 0.52L191.04 0.52Q186.59 0.52 184.36-2.00L184.36-2.00L184.36-2.00Q183.32-3.12 182.88-5.16L182.88-5.16L182.88-5.16Q182.43-7.20 182.43-11.13L182.43-11.13L182.43-28.65L176.20-28.65L176.20-29.61L176.20-29.61Q177.98-29.61 180.54-30.62L180.54-30.62L180.54-30.62Q183.10-31.62 184.06-32.80L184.06-32.80L184.06-32.80Q185.03-34.07 185.99-36.40L185.99-36.40L185.99-36.40Q186.96-38.74 186.96-41.04L186.96-41.04L188.66-41.04L188.66-41.04Q188.37-38.67 188.37-33.77L188.37-33.77L188.37-33.77Q188.37-33.25 188.37-32.14L188.37-32.14L188.37-32.14Q188.37-31.02 188.37-30.43L188.37-30.43L196.83-30.58ZM226.22-30.88L226.22-30.88L226.22-30.88Q229.04-30.88 230.56-29.21L230.56-29.21L230.56-29.21Q232.08-27.54 232.08-24.42L232.08-24.42L232.08-24.42Q232.08-22.56 230.82-21.00L230.82-21.00L230.82-21.00Q229.56-19.45 227.93-19.45L227.93-19.45L227.93-19.45Q226.74-19.45 225.48-20.48L225.48-20.48L225.48-20.48Q224.21-21.52 224.14-22.93L224.14-22.93L224.14-22.93Q224.14-24.57 226.29-26.05L226.29-26.05L226.29-26.05Q226.07-26.72 225.51-27.39L225.51-27.39L225.51-27.39Q224.96-28.05 223.77-28.05L223.77-28.05L223.77-28.05Q221.69-28.05 219.80-25.79L219.80-25.79L219.80-25.79Q217.91-23.53 217.09-21.30L217.09-21.30L216.27-19L216.42-3.12L216.42-3.12Q216.50-1.63 221.54-1.19L221.54-1.19L221.54 0L221.54 0Q218.43-0.22 213.45-0.22L213.45-0.22L213.45-0.22Q208.78-0.22 205.73 0L205.73 0L205.73-1.19L205.73-1.19Q206.85-1.26 208.67-1.93L208.67-1.93L208.67-1.93Q210.48-2.60 210.48-3.12L210.48-3.12L210.48-27.68L210.48-27.68Q209.52-28.28 205.73-28.43L205.73-28.43L205.59-29.61L205.59-29.61Q209.82-29.61 215.68-31.10L215.68-31.10L216.50-22.19L216.50-22.19Q217.68-25.38 220.13-28.13L220.13-28.13L220.13-28.13Q222.58-30.88 226.22-30.88ZM266.74-6.16L266.74-6.16L267.86-5.49L267.86-5.49Q266.89 0.52 260.73 0.52L260.73 0.52L260.73 0.52Q258.21 0.52 256.95-1.15L256.95-1.15L256.95-1.15Q255.68-2.82 255.46-5.12L255.46-5.12L255.46-5.12Q253.98-3.41 253.20-2.67L253.20-2.67L253.20-2.67Q252.42-1.93 250.27-0.63L250.27-0.63L250.27-0.63Q248.11 0.67 245.96 0.67L245.96 0.67L245.96 0.67Q242.25 0.67 239.58-1.41L239.58-1.41L239.58-1.41Q236.91-3.49 236.91-8.02L236.91-8.02L236.91-8.02Q236.91-10.02 237.76-11.50L237.76-11.50L237.76-11.50Q238.61-12.99 240.13-13.92L240.13-13.92L240.13-13.92Q241.66-14.84 243.21-15.44L243.21-15.44L243.21-15.44Q244.77-16.03 246.85-16.29L246.85-16.29L246.85-16.29Q248.93-16.55 250.30-16.63L250.30-16.63L250.30-16.63Q251.68-16.70 253.35-16.74L253.35-16.74L253.35-16.74Q255.02-16.77 255.16-16.77L255.16-16.77L255.16-16.77Q255.39-16.77 255.39-22.27L255.39-22.27L255.39-22.27Q255.39-29.32 248.93-29.32L248.93-29.32L248.93-29.32Q246.70-29.32 245.37-28.35L245.37-28.35L245.37-28.35Q244.03-27.39 243.73-26.05L243.73-26.05L243.73-26.05Q245.89-26.05 245.89-22.79L245.89-22.79L245.89-22.79Q245.89-20.78 244.55-19.93L244.55-19.93L244.55-19.93Q243.21-19.07 241.95-19.07L241.95-19.07L241.95-19.07Q240.54-19.07 239.43-20.37L239.43-20.37L239.43-20.37Q238.32-21.67 238.32-23.23L238.32-23.23L238.32-23.23Q238.32-25.98 241.80-28.57L241.80-28.57L241.80-28.57Q244.63-30.73 249.60-30.73L249.60-30.73L249.60-30.73Q254.27-30.73 257.91-27.83L257.91-27.83L257.91-27.83Q261.55-24.94 261.55-19.96L261.55-19.96L261.55-19.96Q261.55-17.52 261.40-13.14L261.40-13.14L261.40-13.14Q261.25-8.76 261.25-6.83L261.25-6.83L261.25-6.83Q261.25-1.86 263.55-1.93L263.55-1.93L263.55-1.93Q264.89-1.93 265.55-2.89L265.55-2.89L265.55-2.89Q266.22-3.86 266.74-6.16ZM255.16-6.98L255.16-6.98L255.16-15.73L255.16-15.73Q252.57-15.51 250.38-15.25L250.38-15.25L250.38-15.25Q248.19-14.99 246.63-14.44L246.63-14.44L246.63-14.44Q245.07-13.88 244.18-12.54L244.18-12.54L244.18-12.54Q243.29-11.21 243.29-8.83L243.29-8.83L243.29-8.83Q243.29-5.64 244.88-4.16L244.88-4.16L244.88-4.16Q246.48-2.67 248.93-2.67L248.93-2.67L248.93-2.67Q252.79-2.67 255.16-6.98ZM287.08-29.32L287.08-29.32L286.93-28.28L286.93-28.28Q282.92-28.28 282.92-26.13L282.92-26.13L282.92-26.13Q282.92-25.68 283.14-25.09L283.14-25.09L291.16-5.34L298.51-25.09L298.51-25.09Q298.73-25.68 298.73-26.20L298.73-26.20L298.73-26.20Q298.73-27.02 297.95-27.54L297.95-27.54L297.95-27.54Q297.17-28.05 296.47-28.13L296.47-28.13L296.47-28.13Q295.76-28.20 294.50-28.28L294.50-28.28L294.65-29.32L294.65-29.32Q296.58-29.09 300.21-29.09L300.21-29.09L300.21-29.09Q304.15-29.09 306.52-29.32L306.52-29.32L306.38-28.28L306.38-28.28Q303.85-28.28 302.78-27.39L302.78-27.39L302.78-27.39Q301.70-26.50 300.73-24.20L300.73-24.20L291.31 0.74L287.38 0.74L275.87-25.23L275.87-25.23Q275.13-26.94 273.90-27.54L273.90-27.54L273.90-27.54Q272.68-28.13 270.08-28.28L270.08-28.28L270.23-29.32L270.23-29.32Q277.65-28.95 280.32-28.95L280.32-28.95L280.32-28.95Q284.18-28.95 287.08-29.32ZM319.96-17.22L319.96-17.22L333.32-17.29L333.32-17.29Q333.39-18.55 333.39-19.67L333.39-19.67L333.39-19.67Q333.39-21.97 333.02-23.38L333.02-23.38L333.02-23.38Q332.43-25.75 330.61-27.28L330.61-27.28L330.61-27.28Q328.79-28.80 326.12-28.80L326.12-28.80L326.12-28.80Q323.37-28.80 321.81-25.68L321.81-25.68L321.81-25.68Q320.25-22.56 319.96-17.22ZM339.92-16.18L319.88-16.11L319.88-14.47L319.88-14.47Q319.88-9.13 321.85-4.82L321.85-4.82L321.85-4.82Q323.82-0.52 327.53-0.52L327.53-0.52L327.53-0.52Q331.83-0.52 334.36-3.04L334.36-3.04L334.36-3.04Q336.88-5.57 337.84-8.31L337.84-8.31L339.92-6.83L339.92-6.83Q338.81-4.01 335.62-1.37L335.62-1.37L335.62-1.37Q332.43 1.26 327.23 1.26L327.23 1.26L327.23 1.26Q320.92 1.26 316.73-2.67L316.73-2.67L316.73-2.67Q312.54-6.61 312.54-14.10L312.54-14.10L312.54-14.10Q312.54-18.48 313.98-21.78L313.98-21.78L313.98-21.78Q315.43-25.09 317.84-26.83L317.84-26.83L317.84-26.83Q320.25-28.57 322.70-29.39L322.70-29.39L322.70-29.39Q325.15-30.21 327.75-30.21L327.75-30.21L327.75-30.21Q331.76-30.21 335.21-28.05L335.21-28.05L335.21-28.05Q338.66-25.90 339.70-21.08L339.70-21.08L339.70-21.08Q340.00-19.59 340.00-18.11L340.00-18.11L340.00-18.11Q340.00-17.29 339.92-16.18L339.92-16.18ZM356.62-48.76L356.62-48.76L356.62-48.76Q356.32-41.64 356.25-32.73L356.25-32.73L356.25-32.73Q356.25-29.17 356.36-19.41L356.36-19.41L356.36-19.41Q356.47-9.65 356.47-2.75L356.47-2.75L356.47-2.75Q356.62-2.00 358.48-1.63L358.48-1.63L358.48-1.63Q360.33-1.26 361.59-1.19L361.59-1.19L361.59 0L361.59 0Q358.33-0.37 353.80-0.37L353.80-0.37L353.80-0.37Q348.53-0.37 345.19 0L345.19 0L345.19-1.19L345.19-1.19Q350.09-1.41 350.24-2.75L350.24-2.75L350.24-2.75Q350.46-9.80 350.46-22.27L350.46-22.27L350.46-22.27Q350.46-35.55 350.24-44.38L350.24-44.38L350.24-44.38Q348.38-45.87 345.19-45.87L345.19-45.87L345.19-47.13L345.19-47.13Q349.13-47.35 356.62-48.76ZM410.28-25.09L410.28-25.09L410.28-25.09Q409.39-25.09 408.24-26.50L408.24-26.50L408.24-26.50Q407.09-27.91 406.79-27.91L406.79-27.91L406.79-27.91Q404.94-27.91 403.97-26.72L403.97-26.72L404.86-26.05L404.86-26.05Q405.61-25.38 406.35-23.60L406.35-23.60L406.35-23.60Q407.09-21.82 407.09-19.52L407.09-19.52L407.09-19.52Q407.09-14.32 403.27-11.32L403.27-11.32L403.27-11.32Q399.45-8.31 395.29-8.31L395.29-8.31L395.29-8.31Q393.29-8.31 391.21-8.98L391.21-8.98L389.20-9.57L388.39-9.28L388.39-9.28Q387.64-8.91 386.90-8.13L386.90-8.13L386.90-8.13Q386.16-7.35 386.09-6.61L386.09-6.61L386.09-6.61Q386.16-4.16 390.91-4.16L390.91-4.16L390.91-4.16Q397.44-4.16 400.11-3.64L400.11-3.64L400.11-3.64Q404.79-2.82 407.24-0.96L407.24-0.96L407.24-0.96Q409.69 0.89 409.69 5.34L409.69 5.34L409.69 5.34Q409.69 10.91 404.83 14.14L404.83 14.14L404.83 14.14Q399.96 17.37 392.69 17.37L392.69 17.37L392.69 17.37Q386.53 17.37 383.53 15.07L383.53 15.07L383.53 15.07Q380.52 12.77 380.52 9.50L380.52 9.50L380.52 9.50Q380.52 6.83 382.71 5.05L382.71 5.05L382.71 5.05Q384.90 3.27 389.13 1.71L389.13 1.71L389.13 1.71Q389.05 1.71 388.76 1.71L388.76 1.71L388.76 1.71Q388.46 1.71 388.39 1.71L388.39 1.71L388.39 1.71Q386.23 1.71 384.30 0.15L384.30 0.15L384.30 0.15Q382.38-1.41 382.38-4.23L382.38-4.23L382.38-4.23Q382.38-5.71 383.34-7.09L383.34-7.09L383.34-7.09Q384.30-8.46 385.23-9.02L385.23-9.02L385.23-9.02Q386.16-9.57 387.64-10.32L387.64-10.32L387.64-10.32Q387.35-10.54 386.57-11.47L386.57-11.47L386.57-11.47Q385.79-12.39 384.94-13.40L384.94-13.40L384.94-13.40Q384.08-14.40 383.49-16.03L383.49-16.03L383.49-16.03Q382.89-17.66 382.89-19.30L382.89-19.30L382.89-19.30Q382.89-23.45 386.23-26.72L386.23-26.72L386.23-26.72Q389.57-29.98 394.62-29.98L394.62-29.98L394.62-29.98Q397.07-29.98 399.19-29.46L399.19-29.46L399.19-29.46Q401.30-28.95 402.19-28.43L402.19-28.43L403.08-27.91L403.08-27.91Q406.50-30.95 409.02-30.95L409.02-30.95L409.02-30.95Q412.51-30.95 412.51-28.13L412.51-28.13L412.51-28.13Q412.51-25.09 410.28-25.09ZM401.60-19.37L401.60-19.37L401.60-19.37Q401.60-23.75 399.52-26.24L399.52-26.24L399.52-26.24Q397.44-28.72 394.99-28.72L394.99-28.72L394.99-28.72Q392.77-28.72 390.76-26.05L390.76-26.05L390.76-26.05Q388.76-23.38 388.76-19.52L388.76-19.52L388.76-19.52Q388.76-15.36 390.50-12.47L390.50-12.47L390.50-12.47Q392.25-9.57 395.21-9.57L395.21-9.57L395.21-9.57Q397.96-9.57 399.78-11.95L399.78-11.95L399.78-11.95Q401.60-14.32 401.60-19.37ZM404.79 8.76L404.79 8.76L404.79 8.76Q404.79 4.53 401.93 3.19L401.93 3.19L401.93 3.19Q399.07 1.86 391.21 1.86L391.21 1.86L389.95 2.45L389.95 2.45Q388.61 2.97 387.24 4.75L387.24 4.75L387.24 4.75Q385.86 6.53 385.86 8.98L385.86 8.98L385.86 8.98Q385.86 11.65 387.87 13.88L387.87 13.88L387.87 13.88Q389.87 16.11 393.95 16.11L393.95 16.11L393.95 16.11Q399.15 16.11 401.97 13.92L401.97 13.92L401.97 13.92Q404.79 11.73 404.79 8.76ZM417.41-28.13L417.41-29.32L417.41-29.32Q423.94-29.32 428.17-30.13L428.17-30.13L428.02-9.80L428.02-9.80Q428.17-1.26 432.03-1.26L432.03-1.26L432.03-1.26Q434.18-1.26 436.18-2.78L436.18-2.78L436.18-2.78Q438.19-4.30 439.45-6.09L439.45-6.09L439.45-6.09Q440.71-7.87 441.45-9.43L441.45-9.43L442.20-10.91L442.20-27.24L442.20-27.24Q440.79-28.13 437.82-28.13L437.82-28.13L437.82-29.32L437.82-29.32Q444.79-29.32 448.73-30.13L448.73-30.13L448.13-15.36L448.13-15.36Q448.13-13.73 448.13-11.65L448.13-11.65L448.21-2.08L448.21-2.08Q449.10-1.34 452.73-1.19L452.73-1.19L452.73-0.30L452.73-0.30Q447.09 0 442.57 1.11L442.57 1.11L442.05-6.98L441.16-5.79L441.16-5.79Q440.27-4.60 438.86-3.12L438.86-3.12L438.86-3.12Q437.45-1.63 435.29-0.41L435.29-0.41L435.29-0.41Q433.14 0.82 431.14 0.82L431.14 0.82L431.14 0.82Q426.02 0.82 423.94-1.86L423.94-1.86L423.94-1.86Q421.86-4.53 421.86-9.65L421.86-9.65L421.79-27.54L421.79-27.54Q420.60-28.13 417.41-28.13L417.41-28.13ZM466.69-47.57L466.69-47.57L466.69-47.57Q468.39-47.57 469.80-46.35L469.80-46.35L469.80-46.35Q471.21-45.13 471.21-43.49L471.21-43.49L471.21-43.49Q471.21-41.49 469.92-40.19L469.92-40.19L469.92-40.19Q468.62-38.89 466.69-38.89L466.69-38.89L466.69-38.89Q465.28-38.89 463.94-40.08L463.94-40.08L463.94-40.08Q462.61-41.27 462.61-43.05L462.61-43.05L462.61-43.05Q462.61-44.90 463.90-46.24L463.90-46.24L463.90-46.24Q465.20-47.57 466.69-47.57ZM470.10-31.32L470.10-31.32L470.10-31.32Q469.95-18.48 469.95-2.75L469.95-2.75L469.95-2.75Q470.25-1.26 475.15-1.19L475.15-1.19L475.15 0L475.15 0Q472.11-0.22 467.06-0.22L467.06-0.22L467.06-0.22Q462.23-0.22 459.34 0L459.34 0L459.34-1.19L459.34-1.19Q463.79-1.34 464.02-2.75L464.02-2.75L464.02-27.68L464.02-27.68Q461.71-28.43 459.34-28.43L459.34-28.43L459.34-29.61L459.34-29.61Q466.02-29.98 470.10-31.32ZM510.70-48.69L510.70-48.69L510.70-48.69Q510.33-36.14 510.25-19.67L510.25-19.67L510.25-19.67Q510.25-8.39 510.48-2.45L510.48-2.45L510.48-2.45Q510.48-1.93 511.07-1.60L511.07-1.60L511.07-1.60Q511.66-1.26 512.26-1.15L512.26-1.15L512.26-1.15Q512.85-1.04 513.63-0.96L513.63-0.96L513.63-0.96Q514.41-0.89 514.56-0.89L514.56-0.89L514.56 0L514.56 0Q506.84 0.30 505.06 0.74L505.06 0.74L504.46-4.68L504.46-4.68Q502.83-2.60 500.23-1.08L500.23-1.08L500.23-1.08Q497.64 0.45 495.04 0.45L495.04 0.45L495.04 0.45Q489.18 0.45 485.50-3.67L485.50-3.67L485.50-3.67Q481.83-7.79 481.83-14.47L481.83-14.47L481.83-14.47Q481.83-21.52 485.98-26.05L485.98-26.05L485.98-26.05Q490.14-30.58 496.60-30.58L496.60-30.58L496.60-30.58Q498.60-30.58 500.23-29.84L500.23-29.84L500.23-29.84Q501.87-29.09 502.65-28.28L502.65-28.28L502.65-28.28Q503.43-27.46 503.87-26.72L503.87-26.72L504.32-25.98L504.32-44.46L504.32-44.46Q504.02-45.94 498.97-46.02L498.97-46.02L499.05-47.28L499.05-47.28Q506.62-47.28 510.70-48.69ZM503.80-9.72L503.80-9.72L504.32-16.55L503.95-23.23L503.57-24.20L503.57-24.20Q503.13-25.01 502.39-26.13L502.39-26.13L502.39-26.13Q501.64-27.24 500.09-28.09L500.09-28.09L500.09-28.09Q498.53-28.95 496.67-28.95L496.67-28.95L496.67-28.95Q489.40-28.95 489.40-15.14L489.40-15.14L489.40-15.14Q489.40-2.00 496.89-2.00L496.89-2.00L496.89-2.00Q499.57-2.00 501.68-4.64L501.68-4.64L501.68-4.64Q503.80-7.27 503.80-9.72ZM525.69-17.22L525.69-17.22L539.05-17.29L539.05-17.29Q539.13-18.55 539.13-19.67L539.13-19.67L539.13-19.67Q539.13-21.97 538.75-23.38L538.75-23.38L538.75-23.38Q538.16-25.75 536.34-27.28L536.34-27.28L536.34-27.28Q534.52-28.80 531.85-28.80L531.85-28.80L531.85-28.80Q529.11-28.80 527.55-25.68L527.55-25.68L527.55-25.68Q525.99-22.56 525.69-17.22ZM545.66-16.18L525.62-16.11L525.62-14.47L525.62-14.47Q525.62-9.13 527.58-4.82L527.58-4.82L527.58-4.82Q529.55-0.52 533.26-0.52L533.26-0.52L533.26-0.52Q537.57-0.52 540.09-3.04L540.09-3.04L540.09-3.04Q542.61-5.57 543.58-8.31L543.58-8.31L545.66-6.83L545.66-6.83Q544.54-4.01 541.35-1.37L541.35-1.37L541.35-1.37Q538.16 1.26 532.96 1.26L532.96 1.26L532.96 1.26Q526.66 1.26 522.46-2.67L522.46-2.67L522.46-2.67Q518.27-6.61 518.27-14.10L518.27-14.10L518.27-14.10Q518.27-18.48 519.72-21.78L519.72-21.78L519.72-21.78Q521.16-25.09 523.58-26.83L523.58-26.83L523.58-26.83Q525.99-28.57 528.44-29.39L528.44-29.39L528.44-29.39Q530.89-30.21 533.48-30.21L533.48-30.21L533.48-30.21Q537.49-30.21 540.94-28.05L540.94-28.05L540.94-28.05Q544.39-25.90 545.43-21.08L545.43-21.08L545.43-21.08Q545.73-19.59 545.73-18.11L545.73-18.11L545.73-18.11Q545.73-17.29 545.66-16.18L545.66-16.18Z" fill="#ccc"></path></g></g><style>text {
  font-size: 64px;
  font-family: Arial Black;
  dominant-baseline: central;
  text-anchor: middle;
}</style></svg>